<?xml version="1.0" encoding="UTF-8" standalone="no"?>
<!-- Created with Inkscape (http://www.inkscape.org/) -->

<svg
   xmlns:dc="http://purl.org/dc/elements/1.1/"
   xmlns:cc="http://creativecommons.org/ns#"
   xmlns:rdf="http://www.w3.org/1999/02/22-rdf-syntax-ns#"
   xmlns:svg="http://www.w3.org/2000/svg"
   xmlns="http://www.w3.org/2000/svg"
   xmlns:sodipodi="http://sodipodi.sourceforge.net/DTD/sodipodi-0.dtd"
   xmlns:inkscape="http://www.inkscape.org/namespaces/inkscape"
   version="1.1"
   width="258.25089"
   height="272.9292"
   id="svg3057"
   inkscape:version="0.48.1 r9760"
   sodipodi:docname="avatarBl.svg">
  <sodipodi:namedview
     pagecolor="#ffffff"
     bordercolor="#666666"
     borderopacity="1"
     objecttolerance="10"
     gridtolerance="10"
     guidetolerance="10"
     inkscape:pageopacity="0"
     inkscape:pageshadow="2"
     inkscape:window-width="640"
     inkscape:window-height="480"
     id="namedview6"
     showgrid="false"
     inkscape:zoom="1.1431536"
     inkscape:cx="129.12544"
     inkscape:cy="136.4646"
     inkscape:window-x="0"
     inkscape:window-y="24"
     inkscape:window-maximized="0"
     inkscape:current-layer="svg3057" />
  <metadata
     id="metadata3063">
    <rdf:RDF>
      <cc:Work
         rdf:about="">
        <dc:format>image/svg+xml</dc:format>
        <dc:type
           rdf:resource="http://purl.org/dc/dcmitype/StillImage" />
        <dc:title />
      </cc:Work>
    </rdf:RDF>
  </metadata>
  <defs
     id="defs3061" />
  <path
     d="m 102.43395,272.07548 c 0,-2.36073 1.59703,-4.29433 6.83569,-8.27629 3.11537,-2.36803 6.33931,-5.1912 7.16431,-6.27373 1.85828,-2.43834 4.12843,-8.51495 3.53799,-9.47029 -0.2405,-0.38915 0.0115,-3.82468 0.56011,-7.63451 1.359,-9.43841 0.60646,-12.98571 -3.02327,-14.25104 -2.45915,-0.85726 -3.15766,-0.66586 -4.90535,1.34416 -2.30995,2.65668 -4.04412,7.87853 -4.80876,14.47991 -0.68341,5.90012 -4.61653,12.41688 -11.126125,18.4348 -5.50574,5.08989 -8.05858,5.52356 -4.54577,0.77222 3.46361,-4.68478 6.31118,-10.9867 6.31118,-13.96718 0,-1.56191 0.5625,-3.40231 1.25,-4.08977 0.825675,-0.82563 1.309445,-5.00947 1.425115,-12.32512 0.17749,-11.22537 -0.43037,-12.46049 -2.676755,-5.43893 -0.68379,2.13731 -2.31315,5.46261 -3.6208,7.38955 -1.30766,1.92694 -2.38007,4.00323 -2.38314,4.61398 -0.0167,3.32357 -2.25684,8.61045 -3.64841,8.61045 -1.09418,0 -1.34433,-0.52255 -0.83775,-1.75 0.39724,-0.9625 1.08304,-3.1 1.52402,-4.75 1.67533,-6.26855 2.87998,-9.57846 4.81467,-13.22885 2.22842,-4.20461 3.53888,-11.27115 2.09018,-11.27115 -0.51542,0 -0.93713,0.46042 -0.93713,1.02315 0,1.26962 -6.71592,12.19289 -9.7184,15.80674 -3.33705,4.01654 -2.72516,1.28906 1.15722,-5.15827 4.00323,-6.64803 5.13761,-9.67162 3.62857,-9.67162 -0.58707,0 -1.06739,0.39323 -1.06739,0.87384 0,0.48061 -2.3625,3.56997 -5.25,6.86525 -2.8875,3.29528 -7.411806,8.86455 -10.054014,12.37616 -9.768584,12.98288 -12.116112,15.74313 -12.950551,15.22742 -0.46976,-0.29033 -0.18739,-1.54541 0.627488,-2.78907 0.814878,-1.24366 1.794088,-4.01449 2.176022,-6.1574 0.381933,-2.14291 1.539666,-5.29932 2.57274,-7.01423 1.033073,-1.71492 1.878315,-3.74659 1.878315,-4.51481 0,-0.76823 0.956732,-3.18183 2.126071,-5.36357 1.169339,-2.18173 2.727715,-5.67202 3.463058,-7.75621 0.735342,-2.08418 1.95943,-5.24246 2.720195,-7.0184 3.408778,-7.95749 4.576272,-13.72898 2.777186,-13.72898 -0.87983,0 -1.806204,1.17947 -10.576983,13.46677 -4.631622,6.4886 -5.770801,5.86312 -2.071935,-1.13763 3.677984,-6.96121 7.156918,-13.11518 8.236065,-14.56897 1.563113,-2.10577 3.331021,-6.76219 2.554904,-6.72925 -0.400708,0.017 -2.303561,2.13417 -4.228561,4.70481 -5.720542,7.63919 -15.942122,19.02808 -17.674382,19.69281 -2.827043,1.08484 -2.449542,-0.006 1.590045,-4.59539 4.400077,-4.99875 18.193949,-25.05687 17.623668,-25.62715 -1.173545,-1.17355 -5.567513,3.4273 -6.128366,6.41691 -0.547026,2.91589 -1.410553,3.78948 -5.777064,5.84433 -2.823645,1.32879 -6.371401,2.88112 -7.883901,3.44962 -1.5125,0.5685 -2.75,1.59223 -2.75,2.27496 0,0.68272 -0.732726,3.15993 -1.628279,5.5049 -1.183955,3.10014 -2.753013,4.91989 -5.75,6.6687 -4.111694,2.39925 -15.282018,5.30762 -16.336249,4.25338 -0.596901,-0.5969 2.02341,-3.77382 7.857503,-9.5266 3.518518,-3.46948 6.857025,-8.85548 6.857025,-11.06241 0,-0.58824 1.130645,-2.86059 2.512545,-5.04966 1.81325,-2.87238 3.194013,-3.98013 4.961044,-3.98013 2.936543,0 6.460146,-3.4943 7.197611,-7.13776 0.714473,-3.52986 5.765087,-7.22054 8.828859,-6.45158 1.902533,0.4775 3.481435,-0.55215 8.420762,-5.49148 3.343548,-3.34355 6.079179,-6.71818 6.079179,-7.49918 0,-1.55943 -2.553591,-1.95132 -3.433875,-0.52699 -1.769197,2.86262 -36.035781,27.10699 -38.312564,27.10699 -2.082538,0 8.689326,-11.75783 13.246439,-14.45891 2.2,-1.30397 5.550775,-3.98417 7.446167,-5.95598 2.964942,-3.08448 3.169081,-3.58511 1.46189,-3.58511 -3.348729,0 -23.120774,12.05702 -25.110397,15.31235 -0.438713,0.7178 -2.37266,1.91528 -4.29766,2.66107 -1.925,0.74578 -4.254018,1.9963 -5.175596,2.77893 -0.921578,0.78262 -2.496578,1.25221 -3.5,1.04353 -1.39459,-0.29004 -0.764242,-1.05539 2.675596,-3.24864 2.475,-1.57807 7.300683,-5.15928 10.72374,-7.95823 3.423057,-2.79896 7.60786,-6.15421 9.299562,-7.45611 6.667395,-5.13113 -0.241383,-3.09358 -11.751588,3.4658 -4.902184,2.79363 -8.949357,4.4013 -11.079886,4.4013 -3.016465,0 -13.30621,3.7528 -20.3654864,7.42756 -1.470512,0.76548 -2.90887697,1.15657 -3.19636797,0.86908 -0.596062,-0.59606 3.11457497,-6.14267 5.37002597,-8.02703 2.037192,-1.70202 12.6183084,-7.89492 21.9138814,-12.82572 4.20563,-2.23086 10.107991,-5.86993 13.116359,-8.08682 3.008368,-2.21688 7.71976,-5.27653 10.46976,-6.79922 2.75,-1.52269 5.208106,-2.96672 5.462458,-3.20898 1.356931,-1.29237 -9.120901,1.22441 -12.978559,3.11747 -6.065971,2.97672 -17.102106,6.74879 -17.775407,6.07549 -0.298004,-0.29801 -0.354325,-0.68863 -0.125159,-0.86806 1.256063,-0.98343 9.127034,-4.67377 9.968501,-4.67377 1.593328,0 13.948166,-6.24646 13.948166,-7.05203 0,-1.55409 -2.922431,-1.73693 -6.631167,-0.41488 -5.100759,1.81827 -9.317815,1.804 -13.746709,-0.0465 -5.70942,-2.38555 -4.856513,-4.80556 2.627876,-7.45624 3.4375,-1.21744 7.960887,-2.92619 10.051971,-3.79724 2.091084,-0.87105 6.189555,-1.5209 9.107712,-1.44412 3.255441,0.0856 6.036979,-0.41396 7.198029,-1.29289 1.508179,-1.14171 1.587808,-1.46986 0.392288,-1.6166 -1.942495,-0.23843 -2.051241,-0.25514 -11.734913,-1.803 -4.529202,-0.72396 -7.990145,-1.71234 -7.690983,-2.19639 0.299161,-0.48407 5.467372,-0.88011 11.484913,-0.88011 8.977069,0 10.940983,-0.26481 10.940983,-1.47525 0,-1.17038 -0.530089,-1.27371 -2.5651,-0.5 -3.432985,1.30522 -3.636853,1.25643 -3.237346,-0.77475 0.425993,-2.16585 -6.807763,-4.14375 -15.388537,-4.20763 -5.229549,-0.0389 -8.035283,-1.16646 -6.012886,-2.41637 1.341606,-0.82916 19.499084,-1.0085 21.953869,-0.21684 1.289292,0.41579 2.25,0.31 2.25,-0.24777 0,-1.05572 -8.272741,-4.16139 -11.084922,-4.16139 -0.950754,0 -4.628709,-1.30117 -8.173233,-2.89149 -6.230346,-2.79537 -8.766381,-5.357285 -6.617709,-6.685235 2.200437,-1.35995 16.098049,-1.34567 22.597506,0.0232 3.728097,0.78519 7.097221,1.11458 7.486943,0.73198 0.389722,-0.3826 -2.838413,-2.81785 -7.173634,-5.41166 C 48.466689,87.570975 39.31667,84.27506 30.020544,82.59377 26.196041,81.902073 24.65765,80.36998 26.21942,78.80821 c 0.703136,-0.703136 4.428319,-1.211722 9.155725,-1.25 l 7.97026,-0.06453 -0.574155,-2.5 C 42.091138,72.032323 38.660545,68.361287 32.317916,63.807697 21.851246,56.293318 19.50803,54.45756 19.471906,53.743685 c -0.07901,-1.56147 3.637085,-0.65534 7.176861,1.75 2.023494,1.375 4.253082,2.5 4.95464,2.5 0.701558,0 0.298255,-0.684531 -0.896229,-1.521181 C 26.639643,53.623492 18.477169,44.499347 18.455527,42.77741 c -0.01944,-1.546228 0.349974,-1.504985 3.728428,0.416261 2.0625,1.172895 4.875,3.119027 6.25,4.324738 2.996958,2.627975 6.562047,4.604469 14.25,7.900237 3.1625,1.355739 5.75,3.104945 5.75,3.887124 0,0.782178 1.847962,2.645066 4.106582,4.13975 l 4.106582,2.717607 -1.856582,-3.202457 c -1.02112,-1.761351 -2.906543,-3.936976 -4.189829,-4.834721 -1.283285,-0.897745 -4.800584,-3.994764 -7.816219,-6.882264 -3.015635,-2.8875 -5.926117,-5.25 -6.467736,-5.25 -1.369689,0 -7.872181,-7.222222 -7.87802,-8.75 -0.0026,-0.6875 0.670222,-1.25 1.495222,-1.25 0.825,0 1.5,0.390201 1.5,0.867114 0,0.476912 1.6875,1.992245 3.75,3.367406 2.0625,1.37516 6.45,5.074745 9.75,8.2213 6.370437,6.07422 11.5,9.41116 11.5,7.481107 0,-0.612939 -2.960178,-4.336995 -6.578174,-8.27568 -3.617996,-3.938686 -7.503446,-8.961247 -8.634334,-11.161247 -1.130889,-2.2 -2.33321,-4.226261 -2.671826,-4.502801 -1.574729,-1.286049 -5.017558,-9.009262 -5.596023,-12.553418 l -0.643689,-3.943781 2.277988,3 c 3.67487,4.839625 21.453223,22.5 22.650309,22.5 0.603003,0 1.534978,0.783751 2.071056,1.74167 0.536078,0.957918 1.246029,1.470327 1.577669,1.138688 1.141582,-1.141583 -1.497732,-6.113761 -6.112678,-11.515612 -2.543688,-2.977419 -4.356607,-5.681771 -4.028707,-6.00967 0.327899,-0.3279 2.369189,0.808068 4.536199,2.524372 2.16701,1.716303 4.437762,3.120552 5.046114,3.120552 1.030706,0 1.534653,1.396374 1.19974,3.32433 -0.07876,0.453381 0.346354,0.52177 0.944694,0.151976 1.290353,-0.797482 7.873924,6.087132 12.214124,12.772633 1.695646,2.611917 3.323418,4.508514 3.617272,4.21466 0.293854,-0.293854 0.422772,-2.205876 0.286485,-4.248939 C 78.414566,45.575835 77.370546,43.47407 75.0064,40.993685 70.336891,36.09459 69.133531,33.417108 68.359149,26.203517 67.701272,20.075205 67.519858,19.757543 61.308926,13.858323 57.802692,10.528059 55.689499,8.044749 56.612941,8.339856 c 0.923443,0.295107 3.398443,0.854338 5.5,1.242736 2.101558,0.388397 6.350636,2.417246 9.442395,4.508553 5.660953,3.829143 7.683788,6.994032 9.320987,14.583442 0.840952,3.898321 2.826692,5.685866 5.406642,4.867021 1.47405,-0.467847 2.45417,0.206572 4.04799,2.785415 1.15665,1.871502 2.103,4.137115 2.103,5.034696 0,0.897581 0.38958,1.631966 0.86573,1.631966 1.33601,0 -0.28545,-7.015395 -2.71182,-11.732905 -2.48845,-4.838219 -4.49989,-16.547898 -2.74244,-15.965209 0.59869,0.198498 1.34497,2.245718 1.6584,4.549378 0.31343,2.30366 1.10093,4.719532 1.75,5.368604 0.64907,0.649073 1.18013,1.809624 1.18013,2.579003 0,0.769379 0.63327,2.816879 1.40726,4.55 0.774,1.733121 2.19828,5.851129 3.16508,9.151129 1.90011,6.485715 5.293785,13.967201 6.010545,13.250446 0.24385,-0.243851 -0.23754,-2.073005 -1.06976,-4.064787 -0.83222,-1.991782 -1.51313,-5.465459 -1.51313,-7.719282 0,-2.253823 -0.455845,-4.949628 -1.013005,-5.990679 -0.55715,-1.04105 -1.24976,-4.498966 -1.53913,-7.684258 -0.28937,-3.185292 -1.01487,-7.59144 -1.61222,-9.79144 -0.59735,-2.2 -1.29826,-5.513017 -1.55757,-7.362261 C 94.171315,8.275511 95.218385,-0.00941896 96.245225,8.0380706e-6 96.624025,0.00350804 97.768495,1.465985 98.788475,3.250008 c 5.099985,8.92019 8.645475,15.925043 8.645475,17.080933 0,0.707897 0.9,3.149871 2,5.426608 1.1,2.276738 2,4.611261 2,5.18783 0,0.576568 0.45,1.048306 1,1.048306 1.22159,0 1.33539,0.910423 -1,-8 -1.08115,-4.125 -1.97344,-8.2875 -1.98286,-9.25 -0.0246,-2.511283 1.73032,-2.159594 2.49499,0.5 0.35579,1.2375 1.25231,3.6 1.99226,5.25 1.3178,2.938544 2.3869,10.262355 2.88598,19.770388 0.30967,5.899363 2.54822,8.918738 2.72805,3.679612 0.0651,-1.8975 0.0241,-3.9 -0.0912,-4.45 -0.68735,-3.279575 -0.27695,-16.20234 0.73995,-23.299817 2.11676,-14.773946 2.96696,-12.34419 2.77106,7.919256 -0.20345,21.048825 0.18046,27.880561 1.56681,27.880561 0.49223,0 0.91066,-2.1375 0.92985,-4.75 0.0317,-4.313623 1.04142,-10.638426 3.95128,-24.75 0.56706,-2.75 1.92715,-6.219278 3.02242,-7.709507 1.09528,-1.49023 1.99141,-3.219251 1.99141,-3.842271 0,-0.62302 0.87639,-2.246912 1.94753,-3.608649 l 1.94753,-2.475885 -0.57591,6.869544 c -0.44213,5.273708 -0.19515,7.605881 1.06318,10.039225 1.33757,2.586565 1.44978,4.014498 0.60997,7.761909 -0.56603,2.525725 -1.69702,5.611542 -2.51332,6.857371 -2.16218,3.299898 -0.95382,14.322779 1.66108,15.152716 1.02297,0.324677 1.85994,0.99886 1.85994,1.498184 0,0.517641 1.14455,0.472703 2.66284,-0.104548 1.81578,-0.690358 2.99276,-0.682484 3.7,0.02475 1.48125,1.481256 3.0905,1.300153 1.89126,-0.212839 -0.54493,-0.6875 -1.01913,-2.684351 -1.05378,-4.437446 -0.0346,-1.753095 -0.59755,-4.18626 -1.25088,-5.407033 -0.7546,-1.409973 -0.95769,-4.178221 -0.55679,-7.589253 0.46381,-3.946301 0.20981,-6.184338 -0.9582,-8.443027 -1.12628,-2.177992 -1.63957,-6.249044 -1.76187,-13.973906 -0.0949,-5.9953 -0.0759,-10.900273 0.0422,-10.89994 1.15089,0.0032 2.57936,5.620835 2.86952,11.284733 0.21972,4.288759 1.08868,8.394507 2.24699,10.616771 1.41003,2.705212 1.65493,4.254096 0.96627,6.111345 -1.04856,2.828003 -0.19345,8.987756 1.24775,8.987756 0.52508,0 0.9705,-2.5875 0.98982,-5.75 0.0423,-6.931612 3.09045,-18.460099 5.0522,-19.108399 1.09663,-0.362402 1.15921,-0.150815 0.27973,0.945778 -0.64696,0.806674 -1.3279,6.834475 -1.58745,14.052384 -0.38722,10.76815 -0.20519,12.970305 1.2293,14.872047 l 1.68381,2.232285 2.75261,-2.872047 c 1.51393,-1.579627 3.4018,-4.364922 4.19526,-6.189546 0.79346,-1.824624 3.14329,-5.199624 5.22183,-7.5 2.07855,-2.300376 4.78848,-5.85698 6.02206,-7.903564 2.86889,-4.759673 10.40403,-11.409774 13.62619,-12.025728 2.50114,-0.478125 3.3193,0.912667 1.64525,2.79679 -0.69742,0.784946 -5.37632,11.765113 -5.73135,13.45 -0.75086,3.563408 -8.02458,17.740538 -10.53235,20.528472 -2.00086,2.224408 -5.21861,10.47847 -4.4029,11.294184 0.62819,0.628184 0.67011,0.582784 3.9084,-4.232135 2.50932,-3.731041 12.90139,-14.856773 19.57306,-20.954903 3.4796,-3.180467 5.37468,-2.981077 2.16573,0.227867 -1.11658,1.116584 -2.71244,3.349552 -3.54634,4.962152 -0.83391,1.6126 -2.18863,3.190035 -3.01048,3.505411 -0.82186,0.315376 -2.59289,2.313714 -3.93563,4.440752 -1.34274,2.127038 -3.85263,5.186035 -5.57753,6.797771 -3.40742,3.183869 -8.48021,11.430429 -7.03132,11.430429 0.49193,0 1.42676,-1.0125 2.0774,-2.25 0.65063,-1.2375 2.48729,-3.511314 4.08145,-5.052919 1.59417,-1.541605 4.46649,-5.254105 6.38294,-8.25 1.91645,-2.995895 3.90563,-5.447081 4.4204,-5.447081 0.51476,0 2.63843,-1.607623 4.71927,-3.572496 2.08083,-1.964873 5.13333,-4.843166 6.78333,-6.396208 3.36914,-3.171162 7.40082,-5.463814 8.20103,-4.663599 0.29136,0.291355 -0.75969,1.663594 -2.33565,3.049419 l -2.86538,2.519682 2.7152,0.0316 c 1.62531,0.01892 4.08882,-1.174446 6.13722,-2.972965 3.43679,-3.01754 10.2779,-5.995433 13.77331,-5.995433 2.41902,0 2.36122,0.612158 -0.37573,3.97962 -2.84276,3.497646 -6.02607,8.920849 -6.76222,11.52038 -0.39405,1.391464 -1.58857,2.098722 -3.9259,2.324458 -3.87337,0.374084 -8.06188,2.813896 -8.06188,4.696051 0,0.709769 -0.98053,3.127483 -2.17896,5.372696 -1.19843,2.245214 -1.88158,4.379588 -1.51811,4.743054 0.36346,0.363466 2.46682,-0.643501 4.67412,-2.237706 2.20731,-1.594204 5.70296,-4.121103 7.76812,-5.615332 3.87751,-2.805542 5.25483,-3.335764 5.25483,-2.022935 0,0.829779 -10.95028,9.301563 -17.77033,13.748174 -2.34868,1.53132 -4.07869,2.975849 -3.84448,3.210066 0.23422,0.234216 2.25942,-0.731636 4.50046,-2.146339 2.24103,-1.414703 4.3389,-2.572187 4.66192,-2.572187 0.32303,0 3.13746,-2.077325 6.25429,-4.616278 4.92518,-4.012023 10.68046,-7.187125 18.91274,-10.433879 1.27247,-0.501853 2.44707,-0.497268 2.76106,0.01078 0.30056,0.48631 -2.42124,2.286374 -6.04844,4.000143 -3.6272,1.71377 -8.69468,5.039959 -11.26106,7.391532 -2.56639,2.351573 -7.26395,5.563104 -10.43903,7.136735 -5.73484,2.842305 -10.58007,6.810104 -6.22713,5.099459 1.1,-0.432285 4.7,-1.479557 8,-2.327272 3.3,-0.847714 6.225,-1.85409 6.5,-2.23639 0.8197,-1.139533 12.08861,-7.784145 18,-10.61354 6.85024,-3.27876 18.86324,-6.441582 19.64738,-5.172825 0.63299,1.02421 -5.46925,6.655975 -7.28237,6.720897 -0.62424,0.02235 -1.83842,1.114205 -2.69816,2.426339 -0.85974,1.312134 -3.499,3.345913 -5.86501,4.519508 -5.07921,2.519401 -8.80184,5.482115 -8.80184,7.005084 0,0.599339 -0.12977,1.089707 -0.28839,1.089707 -0.15861,0 -2.59418,0.812015 -5.41238,1.804477 -4.20751,1.481729 -13.29923,8.045916 -13.29923,9.601999 0,0.226425 4.14514,0.187632 9.21141,-0.08621 8.98772,-0.485796 20.479,0.32265 19.43439,1.367266 -0.28742,0.287422 -5.83781,1.139218 -12.33419,1.89288 -6.49639,0.753662 -13.83661,1.820911 -16.31161,2.371663 -2.475,0.550755 -5.85,1.292325 -7.5,1.647945 -6.04161,1.3021 -0.0434,1.59232 10.37154,0.50181 9.60701,-1.00591 19.08135,-0.48227 20.70815,1.14453 0.26802,0.26802 -1.21526,0.73602 -3.29619,1.03999 -18.08553,2.64189 -21.2835,3.23317 -21.2835,3.93515 0,0.44118 1.6875,0.55473 3.75,0.25234 3.34643,-0.49063 4.65786,0.0731 12.18582,5.238185 8.26489,5.6707 9.72848,7.46337 6.62158,8.11042 -2.35494,0.49045 -10.3544,-3.86368 -12.15934,-6.61836 -1.48353,-2.264155 -2.01002,-2.393185 -7.31599,-1.79287 -4.98118,0.56355 -6.1649,0.34318 -9.19238,-1.711325 -4.42438,-3.00247 -7.72219,-3.8599 -10.05136,-2.61337 -2.23025,1.1936 -2.33192,2.56275 -0.33833,4.556345 0.825,0.825 1.5,2.38944 1.5,3.47653 0,1.0871 1.2375,3.06574 2.75,4.39697 3.0459,2.68088 4.37893,3.10625 4,1.27641 -0.34698,-1.67554 8.97964,-3.97746 13.1462,-3.24463 1.86791,0.32854 4.49885,1.31982 5.84653,2.20286 1.80894,1.18526 5.03955,1.6243 12.34204,1.67726 6.70724,0.0486 10.04003,0.45768 10.35244,1.27055 0.66679,1.73495 -1.68769,2.17017 -13.19794,2.43957 -6.8894,0.16126 -10.65148,-0.15059 -11.45,-0.94911 -0.6541,-0.6541 -0.76177,-1.19616 -0.23927,-1.20458 0.5225,-0.008 0.36815,-0.38444 -0.343,-0.8356 -1.66796,-1.05815 -8.52012,0.0402 -8.42797,1.35091 0.0657,0.93438 2.17991,1.68183 8.22097,2.90638 1.375,0.27872 3.4,1.22759 4.5,2.1086 1.88201,1.50734 1.70502,1.56466 -3,0.97167 -2.75,-0.3466 -6.125,-0.84275 -7.5,-1.10255 l -2.5,-0.47238 2.44133,1.79414 c 1.34273,0.98678 5.025,2.32221 8.18283,2.96763 6.95304,1.42112 14.87584,4.79653 14.87584,6.33767 0,0.61799 -0.7875,0.90612 -1.75,0.64029 -0.9625,-0.26583 -4,-0.73336 -6.75,-1.03895 -4.5272,-0.50308 -4.71634,-0.448 -2.00024,0.58253 1.64987,0.62598 4.34987,1.9615 6,2.96782 l 3.00024,1.82967 -3.31574,0.004 c -1.82366,0.002 -4.20974,-0.47471 -5.30241,-1.05949 -1.09267,-0.58478 -2.75058,-0.91404 -3.68426,-0.7317 -1.07136,0.20923 0.70975,1.67994 4.82828,3.98683 3.58923,2.01042 7.37148,4.58968 8.40499,5.7317 1.03351,1.14202 2.34386,2.0764 2.91189,2.0764 0.56803,0 3.57517,1.99741 6.68253,4.43869 3.10736,2.44129 7.29787,5.22463 9.31223,6.18522 4.22599,2.01523 4.36885,2.42687 1.68511,4.85562 -2.89317,2.61828 -10.17561,0.79754 -22.25905,-5.56519 -3.79779,-1.99978 -3.49373,-0.60017 1.43068,6.58535 2.82684,4.12483 4.88866,7.75074 4.58182,8.05757 -0.30684,0.30684 -1.53762,-0.81802 -2.73507,-2.49968 -1.19745,-1.68193 -2.82765,-3.05784 -3.62266,-3.05784 -0.79501,0 -2.31891,-0.54547 -3.38643,-1.21215 -1.06752,-0.66667 -2.28047,-0.87262 -2.69543,-0.45766 -0.41497,0.41496 1.70207,2.96328 4.70452,5.66293 10.02476,9.01375 12.07633,11.30491 14.62324,16.331 1.39186,2.74669 4.0618,6.43805 5.9332,8.20301 3.85649,3.63713 4.79178,7.28673 1.40256,5.47287 -1.1,-0.5887 -2,-1.50453 -2,-2.03518 0,-0.53065 -0.7875,-0.97233 -1.75,-0.98152 -1.90817,-0.0182 -10.52264,-7.38773 -21.84969,-18.69203 -7.16661,-7.15221 -10.0488,-8.76488 -14.5196,-8.12415 -2.07923,0.29799 -1.70243,0.85701 3.59459,5.33288 8.12661,6.86682 20.458,19.79891 19.83715,20.80347 -0.28021,0.45339 -3.28998,-1.79191 -6.68836,-4.98956 -3.39839,-3.19765 -9.03852,-8.06391 -12.53362,-10.81391 -3.4951,-2.75 -8.09527,-6.51486 -10.2226,-8.36636 -2.12733,-1.8515 -3.86787,-2.88636 -3.86787,-2.29969 0,0.58667 0.58666,1.42653 1.30369,1.86636 2.07684,1.27395 23.13121,24.62334 27.48202,30.47768 2.17535,2.92711 5.36349,6.56298 7.08474,8.07972 1.72125,1.51675 3.12955,3.23457 3.12955,3.81739 0,1.47797 -4.20184,0.10257 -5.76438,-1.88686 -0.6954,-0.8854 -4.45156,-5.10552 -8.34701,-9.37805 -3.89545,-4.27253 -9.30407,-10.70267 -12.01915,-14.28921 -2.71508,-3.58654 -5.38725,-6.52098 -5.93817,-6.52098 -1.35387,0 0.24828,2.89674 3.33641,6.03232 5.8877,5.9782 20.07442,30.96768 17.58059,30.96768 -1.04542,0 -12.20903,-10.73495 -31.21647,-30.01781 -4.3275,-4.39021 -8.29155,-7.98219 -8.80901,-7.98219 -1.21553,0 -0.81109,0.63587 7.82649,12.30475 9.41805,12.72324 15.31546,24.65675 18.08431,36.59387 0.38243,1.64876 0.19842,2.1774 -0.58862,1.69099 -0.62975,-0.38921 -1.14499,-1.10853 -1.14499,-1.59849 0,-0.48997 -1.29007,-2.82592 -2.86683,-5.19099 -1.57676,-2.36507 -3.43479,-6.10013 -4.12897,-8.30013 -1.73101,-5.48599 -3.93214,-9.4094 -7.43356,-13.25 -3.73085,-4.09226 -5.1002,-4.17474 -3.03592,-0.18287 0.87234,1.68693 1.42128,3.82443 1.21988,4.75 -0.25137,1.15516 -0.99135,0.42856 -2.35981,-2.31713 -3.93536,-7.89593 -7.60111,-13.49052 -8.4825,-12.94579 -1.05491,0.65197 1.54249,5.98755 7.10247,14.58993 2.42075,3.74536 3.99461,7.38093 4.0091,9.2609 0.0449,5.82489 1.74689,10.5092 5.34625,14.71424 4.27102,4.98974 5.35468,9.546 3.62161,15.22718 l -1.26705,4.15354 -1.18948,-3.5 c -0.85503,-2.51588 -2.77782,-4.55768 -6.83833,-7.2616 -5.98258,-3.98383 -9.6042,-9.86596 -11.10781,-18.04096 -0.38467,-2.0914 -1.34255,-4.04935 -2.12862,-4.351 -1.68362,-0.64606 -7.01858,-9.68532 -7.96864,-13.50161 -0.77594,-3.11687 -5.49179,-8.04728 -5.49179,-5.74165 0,0.79849 0.70052,2.45194 1.5567,3.67431 0.85619,1.22238 1.35463,2.22251 1.10764,2.22251 -0.24699,0 1.76624,4.1625 4.47384,9.25 6.38346,11.99433 14.76148,36.75 12.43723,36.75 -0.89619,0 -8.34043,-16.30461 -9.58802,-21 -1.4071,-5.29572 -1.86624,-6.29716 -7.10654,-15.5 l -3.98595,-7 0.39409,5 c 0.21675,2.75 1.54108,7.49302 2.94295,10.54003 2.05359,4.46353 4.88705,16.8183 4.73626,20.65152 -0.0778,1.97624 -2.9682,-3.32594 -2.9682,-5.44478 0,-3.65028 -3.07734,-12.50682 -5.1464,-14.81122 -1.01948,-1.13545 -1.8536,-3.29088 -1.8536,-4.78984 0,-1.49896 -0.85304,-4.39749 -1.89565,-6.44117 -1.04261,-2.04368 -2.4162,-5.64893 -3.05241,-8.01166 -1.08682,-4.03614 -3.31665,-6.2615 -4.79388,-4.78428 -0.7513,0.75131 1.17762,8.54123 3.23127,13.04944 2.93284,6.43823 4.51067,10.85749 4.51067,12.63367 0,1.0161 0.82118,3.32364 1.82484,5.12787 2.00852,3.61064 4.58641,10.89671 6.24179,17.64165 0.5887,2.39867 2.07686,5.32367 3.30702,6.5 1.9501,1.86475 5.31482,12.28364 4.29596,13.30249 -0.20036,0.20036 -1.492,-0.52277 -2.87033,-1.60696 -1.64411,-1.29326 -3.42548,-4.75321 -5.1793,-10.0597 -1.47029,-4.44864 -4.51093,-12.23038 -6.75698,-17.29275 -2.24605,-5.06237 -4.30603,-10.55431 -4.57773,-12.20431 -0.2717,-1.65 -1.52354,-5.25 -2.78187,-8 -1.25833,-2.75 -2.54724,-5.7875 -2.86425,-6.75 -0.57032,-1.73161 -2.63915,-2.48423 -2.63915,-0.9601 0,0.43445 0.62553,3.24695 1.39007,6.25 3.43498,13.49236 5.00033,23.57759 6.12467,39.4601 0.75161,10.61725 -0.75816,10.04216 -2.56751,-0.978 -1.85985,-11.32767 -4.98289,-26.61501 -6.59015,-32.25886 -0.82025,-2.88027 -1.23469,-5.65215 -0.92099,-6.15973 0.72591,-1.17455 -1.52976,-11.10341 -2.52251,-11.10341 -0.40861,0 -0.89382,2.93804 -1.07825,6.52897 -0.25965,5.05541 0.14472,7.57273 1.79165,11.1536 1.74014,3.78351 1.95058,5.27872 1.15707,8.22102 -0.53345,1.97803 -1.37809,4.02391 -1.87698,4.54641 -1.47249,1.54218 -1.03663,8.92001 0.67099,11.35798 1.16649,1.6654 1.41165,3.48001 0.94002,6.95769 -0.61912,4.56522 -5.05632,13.24708 -7.12242,13.93578 -0.56126,0.18708 -1.60962,-2.70671 -2.32969,-6.43065 -1.14053,-5.89844 -4.30507,-13.2708 -5.69642,-13.2708 -0.25703,0 -1.23283,1.69104 -2.16844,3.75787 -1.7901,3.95447 -7.10709,11.48567 -8.54801,12.10776 -0.4658,0.2011 -2.2658,1.59824 -4,3.10475 -1.73421,1.50652 -4.9531,3.52162 -7.1531,4.478 -2.2,0.95639 -5.73003,2.59675 -7.8445,3.64525 -4.26552,2.11514 -5.6555,2.358 -5.6555,0.98816 z m 26.01065,-19.68759 c 4.88433,-6.69665 7.79391,-13.36112 9.5586,-21.8942 1.13449,-5.48579 1.49707,-36.90726 0.49618,-43 -2.49956,-15.21574 -7.11239,-30.99323 -11.01038,-37.65936 -12.07636,-20.65236 -16.51064,-27.3114 -22.4727,-33.74773 -7.511115,-8.10861 -17.727195,-18.092915 -18.512925,-18.092915 -0.42756,0 -1.99127,-1.125 -3.47492,-2.5 -1.48365,-1.375 -3.15578,-2.5 -3.715847,-2.5 -0.560066,0 -2.899381,-1.27424 -5.198478,-2.83164 -4.941636,-3.34746 -6.836425,-4.16405 -12.180175,-5.249249 -2.2,-0.446771 -6.397397,-1.313067 -9.327549,-1.9251 -8.111935,-1.694375 -10.82391,-0.8193 -4.172451,1.346328 13.242782,4.311681 29.908629,15.273851 41.87714,27.545236 9.909145,10.1599 13.986255,15.62293 21.355195,28.61443 10.38027,18.3005 14.73944,31.52422 16.81202,51 0.52677,4.95 1.40729,10.88677 1.9567,13.19282 1.73552,7.28445 1.05535,21.11478 -1.91301,38.89824 -1.35248,8.10278 -2.28939,10.34246 -5.97851,14.29167 -3.54874,3.79894 -3.90471,4.63081 -1.28023,2.9918 1.00611,-0.62833 4.23772,-4.44448 7.18134,-8.48033 z m 19.65069,-1.1442 c -0.29243,-2.6125 -0.82824,-7.225 -1.19069,-10.25 -0.5043,-4.20883 -0.21117,-6.67379 1.24867,-10.5 2.18096,-5.71626 2.19631,-6.12161 0.35752,-9.4416 -0.74376,-1.34288 -1.6585,-3.58655 -2.03275,-4.98593 -0.52909,-1.97834 -0.97482,-0.82346 -2.00373,5.1916 -0.7278,4.25476 -1.65855,7.73593 -2.06832,7.73593 -1.97243,0 -1.47801,6.42014 0.86973,11.29356 1.3795,2.86354 2.71016,7.56894 2.95703,10.45644 0.24688,2.8875 0.88657,5.25 1.42154,5.25 0.56835,0 0.75167,-1.97452 0.441,-4.75 z m -44.0603,-5.79657 c 0.35154,-1.40061 0.33564,-2.85008 -0.0353,-3.22104 -0.8689,-0.8689 -2.53055,1.74867 -2.55041,4.01761 -0.0233,2.66666 1.86232,2.08576 2.58573,-0.79657 z m 20.31462,0.29657 c 0.46817,-1.2375 0.64188,-2.47429 0.38602,-2.74843 -0.52818,-0.5659 -3.30168,2.95343 -3.30168,4.18956 0,1.73273 2.10937,0.69012 2.91566,-1.44113 z m 82.08434,-12.60105 c 0,-0.46808 -2.29392,-2.9641 -5.09759,-5.54673 -5.08407,-4.68323 -5.09693,-4.71081 -4.84677,-10.39895 0.41067,-9.33789 0.21406,-9.86596 -5.92649,-15.91751 -6.2591,-6.16839 -6.02733,-5.50225 -6.36244,-18.28576 -0.0622,-2.37336 -1.8148,-4 -4.3097,-4 -1.72891,0 -2.45772,0.72675 -2.94257,2.93425 -1.23617,5.62826 -0.86527,8.95752 1.20129,10.78298 1.11003,0.98053 3.04288,4.40113 4.29523,7.60135 1.55059,3.96235 3.50714,6.80715 6.13302,8.91737 2.684,2.15692 3.85602,3.88577 3.85602,5.68802 0,5.69693 1.97213,9.60799 7.21825,14.315 5.20817,4.67295 6.78175,5.58019 6.78175,3.90998 z M 74.605214,230.3387 c 1.005808,-0.91024 1.828741,-2.18115 1.828741,-2.82424 0,-0.64309 1.792428,-2.93585 3.983173,-5.09501 2.190747,-2.15917 3.990747,-4.43316 3.999997,-5.05332 0.009,-0.62015 0.6629,-1.66374 1.45255,-2.31909 0.78965,-0.65535 1.72833,-2.5238 2.08597,-4.15211 0.35764,-1.62831 1.90958,-4.18471 3.44876,-5.6809 2.74348,-2.66686 4.90776,-8.22034 3.20359,-8.22034 -0.47524,0 -1.64134,0.85888 -2.59135,1.90862 -0.95,1.04975 -3.02978,2.44814 -4.62173,3.10755 -1.59195,0.65941 -3.19599,2.16303 -3.56454,3.34138 -0.36855,1.17835 -1.73351,3.41448 -3.033253,4.96918 -1.299742,1.55469 -2.363167,3.58126 -2.363167,4.50347 0,0.92222 -1.575,4.92339 -3.5,8.8915 -1.925,3.9681 -3.5,7.45403 -3.5,7.74652 0,1.00557 1.345613,0.52898 3.171259,-1.12321 z m 34.465506,-4.59501 c 0.92848,-1.7875 1.72753,-4.48753 1.77568,-6.00007 0.0697,-2.18998 -0.35868,-2.75006 -2.10343,-2.75 -2.76681,9e-5 -3.03798,0.47612 -3.87787,6.80752 -0.58154,4.38387 -0.43914,5.19255 0.91434,5.19255 0.88173,0 2.36281,-1.4625 3.29128,-3.25 z m 16.36323,-0.30902 c 0,-1.34254 -0.45,-2.44098 -1,-2.44098 -0.55,0 -1,1.37656 -1,3.05902 0,1.7847 0.41658,2.80156 1,2.44098 0.55,-0.33992 1,-1.71648 1,-3.05902 z m -2.51377,-17.93029 c -0.33358,-12.89168 -1.38769,-18.65595 -4.20294,-22.9832 -0.70581,-1.08487 -1.28329,-2.99737 -1.28329,-4.25 0,-2.33948 -1.40115,-3.05547 -2.5,-1.27749 -1.44349,2.33561 -2.32344,0.68287 -1.86347,-3.5 0.57824,-5.25842 -0.83959,-5.94179 -3.13166,-1.50942 -0.85057,1.64482 -2.68513,3.73665 -4.07679,4.6485 -1.39167,0.91186 -3.19386,2.94109 -4.00487,4.50942 -1.72819,3.34194 -3.423205,3.72795 -3.423205,0.77957 0,-1.13956 -1.13101,-4.00185 -2.51335,-6.36063 -1.83125,-3.12481 -2.46568,-5.54896 -2.3377,-8.93244 0.20371,-5.38567 -0.44951,-6.46038 -2.76079,-4.54218 -4.66601,3.87245 -8.95369,15.82159 -6.27194,17.47901 0.75105,0.46417 0.92011,2.95719 0.51269,7.56035 -0.60254,6.80783 -0.58618,6.86782 1.87243,6.86782 1.73441,0 3.15966,-1.0488 4.73947,-3.48762 1.24255,-1.91819 2.79156,-3.49319 3.44224,-3.5 1.39554,-0.0146 8.316945,8.17481 8.316945,9.84061 0,0.63086 0.48955,1.14701 1.0879,1.14701 0.71518,0 0.85637,-1.37041 0.4121,-4 -0.8077,-4.78071 0.73952,-5.37128 2.93733,-1.12118 0.81879,1.58335 2.15412,3.13416 2.96742,3.44625 3.08915,1.18542 4.55302,4.9315 3.58533,9.17493 -1.2095,5.30379 0.38322,11.30863 3.31237,12.48824 5.53156,2.22764 5.56237,2.15347 5.18378,-12.47755 z m -80.514114,3.88907 c 4.359913,-2.88526 7.027889,-6.36872 7.027889,-9.17602 0,-2.95209 3.741098,-6.1587 7.975169,-6.83576 3.152337,-0.50408 4.21117,-1.26089 5.467163,-3.9077 0.856717,-1.80539 1.557668,-3.97694 1.557668,-4.82565 0,-2.65793 4.314281,-6.46886 9,-7.94995 3.539394,-1.11875 4.896968,-2.21184 6.359615,-5.12059 2.445765,-4.86387 1.187375,-5.91988 -2.186554,-1.83489 -1.650992,1.99894 -4.584857,3.87499 -7.673061,4.9065 -6.05202,2.02147 -11.335306,5.84265 -12.060855,8.72312 -0.293863,1.16665 -2.030818,3.10041 -3.8599,4.29724 -3.26022,2.13328 -8.061635,9.41343 -9.200194,13.94982 -0.316445,1.26081 -2.071176,3.17495 -3.899403,4.25363 -3.973563,2.34446 -6.437283,6.12049 -3.993391,6.12049 0.856143,0 3.324777,-1.17011 5.485854,-2.60024 z m 67.277884,-1.01575 c 1.0045,-0.35431 1.75,-1.63259 1.75,-3.00064 0,-2.95707 -0.27631,-2.95857 -3.44848,-0.0187 -2.63895,2.4457 -3.50255,5.24532 -1.30152,4.21931 0.6875,-0.32048 2.0375,-0.86047 3,-1.19997 z m 36.3102,-6.87957 c -0.0599,-5.4663 -0.79462,-6.94189 -1.95321,-3.92265 -0.81311,2.11893 -0.77357,7.9183 0.0597,8.75154 1.51043,1.51043 1.95068,0.3877 1.89353,-4.82889 z m 69.78746,-11.5661 c -3.21621,-3.95982 -7.0793,-8.78818 -8.58464,-10.72969 -1.50534,-1.94151 -4.75604,-5.82021 -7.22377,-8.61933 -2.46773,-2.79913 -5.3285,-6.17686 -6.35726,-7.50608 -1.23378,-1.59412 -2.44244,-2.19727 -3.5508,-1.77196 -2.28925,0.87847 -1.08852,5.54114 2.06595,8.02245 1.29835,1.02129 5.55355,5.5265 9.45598,10.01158 6.42896,7.38881 18.83386,18.77358 19.69454,18.07492 0.19121,-0.15521 -2.28379,-3.52206 -5.5,-7.48189 z m -90.05791,5.06166 c -0.28766,-1.1 -0.69553,-2 -0.90638,-2 -0.21085,0 -0.38337,0.9 -0.38337,2 0,1.1 0.40787,2 0.90638,2 0.49851,0 0.67103,-0.9 0.38337,-2 z m -1.28975,-8.5 c 0,-1.925 -0.35964,-3.5 -0.7992,-3.5 -0.43956,0 -0.61533,1.575 -0.39059,3.5 0.22473,1.925 0.58437,3.5 0.7992,3.5 0.21482,0 0.39059,-1.575 0.39059,-3.5 z m 31.25,-6.86854 2.75,-3.05591 0,2.71222 c 0,3.21355 1.36696,3.47443 3.73203,0.71223 0.94185,-1.1 2.35033,-2 3.12997,-2 1.77275,0 4.06403,-2.92953 4.1062,-5.25 0.0463,-2.54921 1.83666,-2.14457 2.21225,0.5 l 0.31955,2.25 2.2078,-2.2078 c 1.9536,-1.9536 2.14195,-2.91837 1.63595,-8.3795 -0.40808,-4.40422 -0.2528,-5.97452 0.5422,-5.48319 0.61273,0.37869 1.12094,2.12447 1.12936,3.87951 0.0174,3.6264 1.47996,6.53143 2.68032,5.32383 0.4424,-0.44508 0.76262,-3.69455 0.7116,-7.22104 -0.0938,-6.48523 1.03041,-8.50062 2.18213,-3.91181 0.67192,2.67715 2.41064,3.44537 2.41064,1.0651 0,-0.7892 -0.43281,-2.57326 -0.96179,-3.9646 -1.31101,-3.44823 0.59876,-4.49136 2.11805,-1.15689 1.24229,2.72653 2.84374,3.42175 2.84374,1.23453 0,-1.89321 -3.10338,-11.00016 -4.13291,-12.12814 -1.09296,-1.19746 -1.12069,-2.55 -0.0523,-2.55 0.44813,0 1.63453,1.6875 2.63643,3.75 1.00191,2.0625 2.01302,3.21671 2.24691,2.56492 0.43227,-1.20461 -1.92904,-9.00935 -3.76191,-12.43409 -1.61668,-3.02079 0.6729,-2.23851 2.99569,1.02354 1.13745,1.5974 2.06809,3.3423 2.06809,3.87756 0,0.53525 0.74561,1.59078 1.65691,2.34563 1.51215,1.25254 1.61082,0.96258 1.12941,-3.31922 -0.34842,-3.09892 -1.6005,-6.15073 -3.68821,-8.98957 -1.78038,-2.42094 -2.68506,-4.45645 -2.07155,-4.66096 1.44925,-0.48308 4.98832,2.78093 6.06345,5.59219 0.47327,1.2375 1.31049,2.25 1.86049,2.25 2.30286,0 -4.34757,-12.33936 -7.58395,-14.07142 -1.3016,-0.6966 -2.36655,-1.8655 -2.36655,-2.59756 0,-1.83733 0.34313,-1.73198 5.21458,1.601 2.35698,1.61262 4.43852,2.50333 4.62563,1.97937 0.51529,-1.44292 -3.78675,-9.18564 -5.94287,-10.69585 -2.4678,-1.72851 -2.42032,-3.21554 0.10266,-3.21554 1.1,0 2,-0.36172 2,-0.80383 0,-1.72205 -6.69545,-7.021335 -10.34206,-8.185495 -2.70629,-0.86396 -3.52872,-1.5399 -2.7821,-2.28652 0.74662,-0.74662 2.2807,-0.69423 5.18942,0.17725 2.2712,0.68046 4.31896,1.0477 4.55058,0.81608 0.23163,-0.23162 -1.68603,-2.06281 -4.26146,-4.06931 -3.21234,-2.50271 -5.71149,-3.64818 -7.95947,-3.64818 -6.23332,0 -5.04309,-3.835117 1.46097,-4.707495 2.27927,-0.305714 4.14412,-0.860584 4.14412,-1.233044 0,-2.827755 -8.24635,-6.669629 -11.5746,-5.392462 -0.78397,0.300838 -1.4254,0.03471 -1.4254,-0.591395 0,-0.626105 0.71273,-1.411874 1.58385,-1.746152 2.10861,-0.80915 -0.1031,-2.292481 -3.45048,-2.314139 -1.98809,-0.01286 -2.2572,-0.375203 -1.68249,-2.265313 1.70012,-5.591325 2.28138,-8.75 1.6102,-8.75 -0.40057,0 -2.67805,1.8 -5.06108,4 -2.38303,2.2 -4.72649,4 -5.20769,4 -0.48121,0 -2.29573,-2.285604 -4.03227,-5.07912 -2.99814,-4.82299 -3.20124,-4.961667 -4.02762,-2.75 -0.84968,2.274056 -0.90409,2.283229 -2.30134,0.38799 -0.78709,-1.067621 -1.43108,-2.581196 -1.43108,-3.363499 0,-1.041445 -0.87038,-1.287391 -3.25,-0.91836 -2.14471,0.332601 -4.29587,-0.129947 -6.32528,-1.360079 -2.423,-1.468706 -4.18799,-1.732304 -8.32133,-1.242771 -4.8949,0.579729 -5.20653,0.778765 -4.65567,2.973578 0.68459,2.727609 0.29423,2.864217 -2.7329,0.956386 -1.21815,-0.767731 -3.25611,-1.707192 -4.52879,-2.087692 -1.88263,-0.562856 -2.25545,-0.349252 -2,1.145875 0.27631,1.617277 -0.28574,1.795546 -4.68603,1.486303 l -5,-0.35139 2.42431,2.60139 c 2.45353,2.632733 1.49765,3.432768 -1.91761,1.604975 -1.024,-0.548028 -2.59533,-0.714937 -3.49185,-0.370909 -1.336225,0.512759 -1.033855,1.125391 1.67755,3.398867 4.48701,3.762276 3.0728,4.635191 -2.48367,1.533045 -4.486985,-2.50506 -4.553115,-2.511041 -6.869665,-0.621292 -2.11395,1.724485 -2.17064,1.973684 -0.58906,2.5894 2.74916,1.070257 2.07647,2.766057 -0.80988,2.041631 -3.04779,-0.764948 -9.44012,0.275798 -9.44012,1.536963 0,0.48879 0.62515,0.888709 1.38922,0.888709 0.76406,0 2.45156,0.92161 3.75,2.048023 l 2.36078,2.048023 -3.01946,-0.576842 c -1.9454,-0.371653 -3.72396,-0.03302 -5,0.951976 -1.943117,1.499932 -1.944573,1.556643 -0.077,3.001302 2.07007,1.601344 2.16776,1.50556 -3.1535,3.092067 -0.68754,0.204975 -1.25004,0.850928 -1.25004,1.435451 0,1.10016 0.746808,1.45389 5.02027,2.37787 3.09989,0.67024 11.35447,5.91157 15.73168,9.98901 2.526345,2.353335 3.519255,2.761915 4.449995,1.831175 1.94327,-1.943275 2.79805,-1.392795 2.79805,1.80195 0,1.65 0.43417,3 0.96482,3 1.44752,0 3.03557,-3.5007 3.03222,-6.684265 -0.003,-2.73919 -0.14956,-2.81574 -5.39558,-2.81574 -6.150135,0 -9.351455,-2.06833 -9.351455,-6.04186 0,-2.70409 1.48447,-3.31367 2.38088,-0.97767 0.66855,1.74223 6.842155,3.65898 9.052805,2.81067 2.49439,-0.95719 5.90508,-4.54903 7.77387,-8.186762 1.24951,-2.432262 1.97322,-3.025402 2.5509,-2.090683 0.92855,1.502411 0.34507,3.445023 -2.09837,6.986305 -1.10101,1.5957 -1.93297,5.35366 -2.3,10.38913 l -0.57504,7.889125 2.09526,-1.88912 c 1.8216,-1.6424 2.01786,-2.63403 1.50267,-7.592595 -0.3453,-3.32336 -0.18371,-5.95617 0.38722,-6.30902 0.53889,-0.33306 0.9798,0.29983 0.9798,1.40641 0,3.09886 2.21223,7.238615 3.58642,6.71128 0.68473,-0.26276 1.49356,0.577335 1.8242,1.894715 0.32672,1.30173 1.42469,2.63042 2.43995,2.95265 1.96083,0.62235 4.14943,4.50361 4.14943,7.3586 0,0.94439 0.95593,4.18571 2.12428,7.20295 2.36573,6.10942 2.8869,10.12825 1.37572,10.60833 -1.39808,0.44415 -5.49882,-8.0181 -5.50558,-11.36125 -0.009,-4.26114 -1.94866,-10.2612 -3.31785,-10.2612 -0.81169,0 -1.11915,1.27416 -0.90488,3.75 0.26743,3.09014 -0.23585,4.33805 -2.86017,7.09192 l -3.18471,3.34193 4.48623,4.15807 c 12.90913,11.96486 16.59167,14.04978 19.75668,11.18548 1.11665,-1.01055 2.03028,-2.68346 2.03028,-3.71757 0,-1.60225 0.31153,-1.71347 2.10736,-0.75237 4.65558,2.49159 4.77873,-1.85835 0.25132,-8.87736 -1.40952,-2.18522 -1.63547,-2.22876 -3.89235,-0.75 -3.51451,2.3028 -4.86537,1.94928 -6.41981,-1.6801 -1.3953,-3.25783 -1.53006,-5.948 -0.4383,-8.75 0.32145,-0.825 0.5343,-5.775 0.47301,-11 -0.0641,-5.464005 0.35216,-10.137265 0.9798,-11.000005 0.61101,-0.83989 1.28463,-1.05993 1.53071,-0.5 1.64233,3.73701 3.07966,5.8986 4.15894,6.25459 0.79516,0.26228 1.02828,-0.16704 0.64005,-1.17875 -0.65805,-1.71484 2.02704,-6.57584 3.63232,-6.57584 0.53732,0 0.97695,0.91412 0.97695,2.03138 0,2.58924 1.9297,3.32605 5.32755,2.03418 2.82512,-1.0741 3.52296,-3.81505 1.48912,-5.84889 -1.8577,-1.857697 -0.0341,-2.737216 3.16873,-1.528281 2.34361,0.884611 2.96793,0.821922 3.21184,-0.322504 0.4405,-2.066835 4.80276,1.145923 4.80276,3.537185 0,2.18246 2.58643,7.53448 4.27075,8.83733 0.67609,0.52297 3.37485,1.80782 5.99725,2.855235 5.85223,2.33742 6.09201,4.90437 0.45811,4.90437 -4.24378,0 -4.69422,0.58844 -1.5408,2.01287 1.20192,0.54292 2.38559,1.61314 2.63037,2.37826 0.71745,2.24248 -4.845,0.40301 -8.20226,-2.71245 l -2.88658,-2.67868 0.57525,3.7595 c 0.31639,2.06773 1.50285,5.06219 2.63658,6.65437 2.84162,3.99068 2.58137,4.91456 -0.56631,2.01044 l -2.62765,-2.42431 0.53416,3 c 0.29378,1.65 0.86706,4.06357 1.27395,5.36349 0.68337,2.18322 0.57336,2.27441 -1.44239,1.19561 -1.2002,-0.64233 -2.45222,-2.51806 -2.78227,-4.1683 -0.46675,-2.33376 -0.95871,-2.82578 -2.21412,-2.21438 -0.88772,0.43232 -3.94721,0.79449 -6.79887,0.80481 -4.38365,0.0159 -5.65686,-0.43354 -8.23957,-2.90833 -3.4581,-3.3136 -4.48368,-3.04701 -3.49116,0.90752 0.4444,1.77064 1.67995,3.06439 3.54867,3.71583 1.57679,0.54967 2.86904,1.51788 2.87167,2.15158 0.007,1.73987 6.1346,8.05426 10.83272,11.16333 5.41758,3.58519 5.31953,4.87936 -0.32152,4.24353 l -4.48401,-0.50541 2.60817,3.12536 c 1.4345,1.71895 3.22731,3.48522 3.98402,3.92505 1.58965,0.92397 1.85411,5.28669 0.37584,6.20031 -0.55,0.33992 -1,1.65502 -1,2.92245 0,1.84416 -1.14845,2.81185 -5.75,4.84499 -3.1625,1.39731 -7.60342,2.83834 -9.86872,3.20228 -3.72142,0.59789 -4.32126,0.3901 -6.21832,-2.154 -1.15478,-1.54865 -2.11386,-2.24661 -2.13128,-1.55103 -0.0174,0.69557 1.43082,2.82685 3.21832,4.73617 3.45519,3.69065 6.9408,4.46054 13.5,2.98182 4.52519,-1.02016 4.05751,0.25357 -0.90965,2.47743 -2.59318,1.16101 -5.37611,1.66493 -7.38989,1.33814 l -3.23025,-0.5242 0.43804,4.86297 c 0.85348,9.47515 1.32404,11.04929 3.60992,12.07616 2.92232,1.31278 6.41119,-0.11387 9.98183,-4.08172 z m -5.69396,-8.54078 c -0.30909,-0.50013 1.98568,-2.6494 5.0995,-4.77616 3.11381,-2.12676 5.79257,-4.53007 5.95278,-5.34068 0.16022,-0.81061 0.95336,-3.27384 1.76255,-5.47384 2.0062,-5.45443 3.26074,-2.30132 1.6898,4.24708 -1.40104,5.84021 -1.57547,6.09088 -6.61442,9.50573 -4.14948,2.81206 -6.89315,3.45115 -7.89021,1.83787 z M 120.5821,84.106411 c -1.0592,-0.671206 -0.84868,-1.209075 0.97251,-2.484687 3.16351,-2.215805 3.87934,-2.054906 3.87934,0.871961 0,2.606417 -2.15392,3.322369 -4.85185,1.612726 z m 18.08579,-4.314541 c 0.50554,-1.516634 9.31215,-3.888273 13.18905,-3.551839 4.05386,0.35179 4.30758,2.303326 0.47323,3.639987 -4.42737,1.543391 -14.18514,1.480435 -13.66228,-0.08815 z m 104.58246,100.48699 c -0.3227,-1.67568 -6.21031,-6.28517 -8.0279,-6.28517 -1.04249,0 6.27195,7.62068 7.53482,7.8503 0.45283,0.0823 0.67472,-0.62197 0.49308,-1.56513 z m -122.78077,-7.65247 c -1.00869,-3.75708 -2.32935,-7.32642 -2.9348,-7.93187 -1.64737,-1.64737 -1.41086,0.79896 0.41943,4.33835 0.83615,1.61693 1.51338,3.28208 1.50496,3.70034 -0.008,0.41826 0.47731,2.25313 1.0794,4.07748 1.8924,5.73405 1.84651,2.95041 -0.069,-4.1843 z M 16.433955,174.9508 c 3.025,-1.20518 7.794961,-3.26356 10.599913,-4.57417 2.804952,-1.31062 5.435485,-2.38294 5.845629,-2.38294 0.410145,0 1.940184,-0.84817 3.400088,-1.88482 4.596736,-3.26405 11.975128,-7.11518 13.631997,-7.11518 1.682108,0 5.681186,-2.23986 9.022373,-5.05338 1.1,-0.92628 3.2375,-1.97677 4.75,-2.33443 1.613615,-0.38157 2.797666,-1.36558 2.86535,-2.38124 0.247212,-3.7097 0.448241,-4.18623 2.38465,-5.65271 3.265602,-2.4731 4.528521,-1.97085 3.82974,1.52306 -0.533684,2.66842 -0.355719,3.04976 1.275,2.73204 1.746459,-0.34027 1.89773,-1.42777 1.926716,-13.8513 0.02556,-10.95446 -0.31941,-14.32569 -1.840057,-17.98204 -4.343364,-10.44349 -4.685126,-10.69862 -7.702359,-5.75 -2.356063,3.86422 -2.580551,6.19096 -0.521065,5.40066 2.240792,-0.85987 2.833357,1.08104 1.089958,3.57009 -0.856863,1.22335 -1.557933,3.54388 -1.557933,5.15674 0,2.87213 0.04129,2.89512 2.006131,1.11696 2.51278,-2.27403 3.903762,-1.15735 1.654405,1.32816 -2.075404,2.2933 -2.136227,4.17739 -0.134856,4.17739 1.330903,0 1.30808,0.41491 -0.178771,3.25 -0.937448,1.7875 -1.966299,4.80753 -2.286334,6.71118 -0.494034,2.93864 -1.080803,3.56323 -3.886561,4.13707 -1.817573,0.37173 -4.316782,1.6267 -5.553798,2.78881 -1.237015,1.16212 -2.806563,2.11294 -3.487884,2.11294 -0.681322,0 -4.340871,2.025 -8.132332,4.5 -3.791461,2.475 -7.157513,4.5 -7.480116,4.5 -0.322603,0 -2.065732,1.4625 -3.873621,3.25 -1.807889,1.7875 -6.180389,4.37344 -9.716667,5.74654 -6.821153,2.64858 -15.7739764,7.92869 -15.8713264,9.36045 -0.03205,0.47134 0.50423,0.61722 1.19173,0.32418 0.6875004,-0.29305 3.7250004,-1.51887 6.7500004,-2.72406 z m 85.396255,-0.54735 c 0.77318,-2.01488 -0.0705,-3.40976 -2.062265,-3.40976 -1.0007,0 -1.33337,0.55922 -0.94098,1.58179 0.33385,0.86998 0.60699,1.99498 0.60699,2.5 0,1.52114 1.742135,1.03256 2.396255,-0.67203 z m 126.85298,-5.65976 c -1.27497,-5.09069 -10.01081,-12.60924 -14.76557,-12.70808 -1.10898,-0.0231 -4.47663,-2.29192 -7.48367,-5.04192 -3.62563,-3.31572 -6.34306,-5 -8.067,-5 -3.462,0 -3.71664,0.39416 -3.02067,4.67583 0.4791,2.94752 1.17813,3.84964 3.59128,4.63463 1.64802,0.53609 4.19086,1.81055 5.65076,2.83212 1.4599,1.02158 3.60351,1.85742 4.76357,1.85742 1.16006,0 2.89059,0.42282 3.84563,0.9396 0.95504,0.51678 2.94733,1.19367 4.42731,1.50421 1.47998,0.31054 4.40498,2.29536 6.5,4.4107 4.52385,4.56775 5.30945,4.89443 4.55836,1.89549 z m -123.24924,0.28518 c 0,-0.53065 -1.0125,-1.47304 -2.25,-2.0942 -1.2375,-0.62116 -3.299595,-2.32449 -4.582445,-3.78518 l -2.33244,-2.6558 0.66863,2.5 c 1.06948,3.99881 8.496255,9.2743 8.496255,6.03518 z m -38.999995,-7.03518 c 0,-0.55 -0.45,-1 -1,-1 -0.55,0 -1,0.45 -1,1 0,0.55 0.45,1 1,1 0.55,0 1,-0.45 1,-1 z m 48.040125,-5.1185 c -2.06725,-5.47971 -6.02158,-12.24507 -6.03354,-10.32263 -0.004,0.58238 0.6541,1.93238 1.46161,3 0.8075,1.06762 1.4825,2.44643 1.5,3.06401 0.0489,1.72689 4.13925,10.60301 4.65052,10.09173 0.24839,-0.24838 -0.46198,-2.87328 -1.57859,-5.83311 z m -57.540125,3.1185 c 0.339919,-0.55 -0.08352,-1 -0.940983,-1 -0.857459,0 -1.559017,0.45 -1.559017,1 0,0.55 0.423442,1 0.940983,1 0.517541,0 1.219098,-0.45 1.559017,-1 z m 28.76716,-4.38278 c -0.69776,-3.65009 1.52394,-4.14328 3.46092,-0.76829 1.57601,2.74603 2.09791,2.95886 6.68667,2.72681 2.73748,-0.13843 5.101475,-0.6621 5.253345,-1.16372 0.15186,-0.50161 -2.073835,-2.46941 -4.945995,-4.37289 -2.87215,-1.90348 -5.8971,-4.06166 -6.7221,-4.79596 -0.825,-0.7343 -2.39929,-1.95262 -3.49843,-2.70737 -1.09913,-0.75475 -1.66439,-1.70631 -1.25613,-2.11457 0.40826,-0.40827 1.53256,-0.0898 2.49843,0.70775 0.96587,0.79753 3.33113,2.21337 5.25613,3.14631 1.925,0.93295 4.5125,2.43256 5.75,3.33246 1.2375,0.89991 2.249995,1.20009 2.249995,0.66708 0,-1.26846 -16.007315,-13.27483 -17.698475,-13.27483 -0.7854,0 -1.333064,1.28879 -1.381064,3.25 -0.04375,1.7875 -0.240383,5.72091 -0.436962,8.74092 -0.260794,4.00653 0.07294,5.96645 1.234536,7.25 2.29442,2.5353 4.0926,2.2193 3.54913,-0.6237 z m 68.501405,-0.84011 c 0.70387,-0.58416 1.07758,-1.2643 0.83046,-1.51141 -0.71616,-0.71616 -7.59903,2.04059 -7.59903,3.0436 0,1.08969 4.96311,-0.0338 6.76857,-1.53219 z m 98.88255,-0.14439 c -1.01688,-0.623 -4.48504,-2.82022 -7.70703,-4.88272 -3.22198,-2.0625 -6.13955,-3.75 -6.48349,-3.75 -0.34394,0 -5.20078,-2.61438 -10.79297,-5.80974 -5.5922,-3.19536 -12.41763,-6.97118 -15.16763,-8.39071 -2.75,-1.41953 -6.43345,-3.4092 -8.18544,-4.42148 -1.752,-1.01228 -3.39936,-1.62397 -3.66082,-1.35929 -0.26145,0.26467 -0.79058,2.16872 -1.17585,4.23122 -0.601,3.2175 -0.44175,3.75 1.1215,3.75 1.66219,0 12.16643,4.58585 31.10407,13.57915 3.96191,1.88147 7.63691,3.42085 8.16667,3.42085 0.52976,0 1.1132,0.41097 1.29654,0.91327 0.41277,1.13092 12.12194,5.1443 12.82396,4.39548 0.28016,-0.29883 -0.32263,-1.05304 -1.33951,-1.67603 z m -105.15112,-2.63272 c 2.1673,-2.39484 0.73407,-2.67476 -4.44715,-0.86858 -2.36977,0.82611 -2.88228,1.36168 -1.89922,1.98469 2.20605,1.39809 4.42407,1.00801 6.34637,-1.11611 z m 67.5,0.0567 c 0,-1.28286 -4.13126,-4.09361 -5.11929,-3.48297 -1.21849,0.75306 0.0862,3.25854 1.95443,3.75334 2.7941,0.74 3.16486,0.70832 3.16486,-0.27037 z m 7.37503,-1.83997 c -1.16873,-0.9442 -3.13331,-2.39173 -4.36573,-3.21673 -1.23242,-0.825 -3.20119,-2.2129 -4.37503,-3.08422 -2.01797,-1.4979 -8.50021,-4.91578 -9.32309,-4.91578 -0.20985,0 0.11594,0.92956 0.72398,2.06569 0.60803,1.13613 2.98637,2.88232 5.28518,3.88043 2.29881,0.99811 5.30466,2.94608 6.67966,4.32883 1.375,1.38274 3.625,2.54657 5,2.58629 l 2.5,0.0722 -2.12497,-1.71673 z m -80.8131,-2.78935 c 2.99094,-1.41494 5.43807,-2.93746 5.43807,-3.38337 0,-1.63202 -4.32,-1.88044 -6.60982,-0.3801 -2.20323,1.44362 -2.55503,1.37517 -5.44946,-1.06033 -1.70179,-1.43197 -3.47284,-2.60358 -3.93566,-2.60358 -0.46282,0 -1.55329,-0.27314 -2.42327,-0.60699 -2.29315,-0.87996 -1.95275,0.87229 1.16821,6.01358 1.60708,2.64741 3.50305,4.54333 4.56193,4.5618 0.99655,0.0174 4.25905,-1.12607 7.25,-2.54101 z m 15.42276,-1.67738 c 0.008,-0.4125 -0.43469,-0.75 -0.98469,-0.75 -0.55,0 -0.99311,1.0125 -0.98469,2.25 0.0124,1.81944 0.20082,1.96296 0.98469,0.75 0.53316,-0.825 0.97627,-1.8375 0.98469,-2.25 z m -52.4996,-8.91032 c -3.82067,-7.27076 -5.551715,-9.49725 -15.344475,-19.73613 l -5.35938,-5.60355 6.14935,7.48304 c 3.38215,4.11567 8.71887,11.60536 11.859385,16.64376 3.14052,5.03839 5.8849,8.99615 6.09864,8.79501 0.21374,-0.20113 -1.31785,-3.61309 -3.40352,-7.58213 z m -8.080095,3.97462 c -4.24144,-4.86643 -12.83668,-11.79174 -14.65499,-11.80771 -1.25093,-0.011 -0.839466,3.0468 0.60426,4.49052 0.74484,0.74484 2.88234,2.01622 4.75,2.82529 1.86765,0.80906 4.52074,2.6153 5.89574,4.01387 3.19159,3.24629 6.18385,3.66638 3.40499,0.47803 z M 42.014247,137.3957 c 2.553215,-1.06681 5.003801,-1.36976 7.372124,-0.91139 5.164354,0.99951 8.177768,0.70154 10.051199,-0.99389 0.909626,-0.8232 2.180933,-1.49673 2.825126,-1.49673 0.644192,0 1.171259,-0.66168 1.171259,-1.47039 0,-1.21044 -1.436814,-1.39023 -8.127134,-1.01694 -4.469923,0.24941 -8.64982,0.88726 -9.28866,1.41745 -0.63884,0.53019 -4.258423,1.45871 -8.043518,2.06338 -7.817371,1.24883 -9.335342,1.88828 -7.397451,3.11619 2.136232,1.35358 7.262976,1.03636 11.437055,-0.70768 z m 159.978573,0.0662 c -1.06762,-0.80751 -2.41762,-1.45389 -3,-1.4364 -0.58238,0.0175 -0.18536,0.6925 0.88226,1.5 1.06762,0.80751 2.41762,1.45389 3,1.4364 0.58238,-0.0175 0.18536,-0.6925 -0.88226,-1.5 z M 93.433955,129.54159 c 0,-1.16329 -10.84514,-8.5479 -12.553576,-8.5479 -1.694461,0 0.334709,2.50845 4.803576,5.93815 5.54584,4.25625 7.75,4.99848 7.75,2.60975 z m 124.999995,-5.1549 c -4.77807,-2.74252 -12.35912,-4.57893 -10.46073,-2.53397 1.14144,1.22957 11.06959,4.95859 13.46073,5.05586 0.825,0.0336 -0.525,-1.10129 -3,-2.52189 z m -61.72714,-10.32842 c 0.63543,-2.42987 -1.09829,-3.12944 -5.84617,-2.35897 -3.1073,0.50424 -3.97969,0.22001 -5.53543,-1.80351 -1.24489,-1.61922 -1.84904,-1.91323 -1.85371,-0.9021 -0.0109,2.34965 1.53563,4.21718 4.62224,5.58184 4.41824,1.95341 8.0236,1.73689 8.61307,-0.51726 z m -40.27286,-1.06458 c 0,-1.1 -0.40787,-2 -0.90638,-2 -0.49851,0 -0.67103,0.9 -0.38337,2 0.28766,1.1 0.69553,2 0.90638,2 0.21085,0 0.38337,-0.9 0.38337,-2 z m 47.9682,0.25 c -0.0444,-1.04732 -2.55264,-4.25 -3.32844,-4.25 -0.84641,0 -0.82479,3.48164 0.0269,4.33333 0.90725,0.90725 3.34093,0.84583 3.30153,-0.0833 z m -98.490107,-6.8569 c 1.235724,-1.88595 1.405807,-2.9092 0.61501,-3.7 -1.391365,-1.39137 -2.733356,-0.0767 -3.630743,3.5569 -0.866036,3.50663 0.76127,3.58384 3.015733,0.1431 z m 93.541967,-0.91727 c 0.69572,-0.83829 1.08832,-1.62579 0.87244,-1.75 -5.02975,-2.89398 -5.18911,-2.94118 -4.58116,-1.35687 0.33072,0.86184 0.16363,1.8375 -0.37133,2.16811 -1.24971,0.77237 -0.22247,2.46293 1.49656,2.46293 0.7252,0 1.88777,-0.68587 2.58349,-1.52417 z m -17.02006,-0.47583 c 0,-0.55 -0.45,-1 -1,-1 -0.55,0 -1,0.45 -1,1 0,0.55 0.45,1 1,1 0.55,0 1,-0.45 1,-1 z M 59.225481,104.1437 c 1.488317,-0.94422 -7.378204,-4.12792 -11.656361,-4.185455 -1.449341,-0.01948 -3.760165,-0.67854 -5.135165,-1.46456 -2.823042,-1.6138 -6,-1.94278 -6,-0.62132 0,1.18474 4.188816,2.789415 11.851705,4.540195 3.493438,0.79816 6.605938,1.70544 6.916667,2.01617 0.79699,0.79699 2.508784,0.67571 4.023154,-0.28503 z m 14.208474,-3.65001 c -0.706751,-0.851585 -1.510001,-1.323335 -1.785001,-1.048335 -0.275,0.275 0.07825,1.196755 0.785001,2.048335 0.706751,0.85158 1.510001,1.32333 1.785001,1.04833 0.275,-0.275 -0.07825,-1.19675 -0.785001,-2.04833 z m 83.999995,-3.686135 c 0,-1.31002 -4.25484,-0.58298 -4.71131,0.80503 -0.23221,0.70613 0.56895,0.93981 2.17168,0.63343 1.39679,-0.26702 2.53963,-0.91432 2.53963,-1.43846 z m 44.00751,-15.612424 c 2.47913,-1.057368 5.85413,-3.027086 7.5,-4.377152 4.16559,-3.41693 9.50379,-6.452594 12.6438,-7.19012 1.45823,-0.342507 5.14038,-2.650313 8.18256,-5.128457 3.04218,-2.478145 5.89909,-4.515723 6.34868,-4.527953 0.4496,-0.01223 1.94245,-0.902223 3.31745,-1.977764 4.31541,-3.375566 -0.12308,-2.175339 -8,2.163304 -8.49506,4.679115 -22.30252,11.531001 -25.5,12.654251 -2.2,0.772842 -4.30481,1.931691 -4.67736,2.57522 -0.37255,0.64353 -3.39917,2.470954 -6.72581,4.060944 -5.53301,2.644538 -5.99611,3.110554 -5.43438,5.468586 1.01651,4.267065 1.4339,4.375985 4.70028,1.226568 1.7255,-1.663717 5.16565,-3.890059 7.64478,-4.947427 z M 68.566551,79.62879 C 66.21045,77.228098 62.49335,74.673347 60.306329,73.951565 56.761514,72.78167 52.109238,68.692996 49.767285,64.689277 c -1.056987,-1.806987 -6.668974,-4.705139 -9.03367,-4.665183 -1.642346,0.02775 -1.654025,0.115401 -0.133605,1.002712 0.91633,0.534766 3.986983,3.889053 6.823674,7.453971 3.322205,4.175071 6.821758,7.325769 9.833945,8.853642 2.571979,1.304586 6.251326,3.304687 8.176326,4.44467 1.925,1.139983 4.381194,2.104623 5.458208,2.143646 1.562637,0.05662 1.092849,-0.810787 -2.325612,-4.293945 z M 186.72955,73.568294 c 0.98758,-0.748982 2.06035,-2.993226 2.38393,-4.987209 0.44857,-2.764201 1.77222,-4.61664 5.57209,-7.798066 5.03807,-4.218109 8.74838,-10.713647 8.74838,-15.315535 0,-2.590779 3.34687,-5.473799 6.35447,-5.473799 3.45761,0 8.64553,-3.949394 8.64553,-6.581559 0,-1.330143 -0.20246,-2.418441 -0.44992,-2.418441 -0.24746,0 -3.05996,1.573843 -6.25,3.497429 -3.19004,1.923586 -6.60993,3.498586 -7.59974,3.5 -2.77595,0.004 -7.50026,2.779755 -8.07006,4.741604 -0.2813,0.968532 -0.81324,4.334027 -1.18208,7.478877 -0.53564,4.566938 -1.08581,5.849685 -2.73322,6.372551 -1.35291,0.429396 -2.47884,0.08538 -3.27237,-0.999827 -1.0843,-1.48288 -1.27212,-1.406072 -1.81089,0.740587 -0.33062,1.31728 -2.40801,5.100886 -4.61642,8.408012 -4.76562,7.136575 -5.00964,8.977292 -1.2653,9.544513 1.5125,0.229124 2.975,0.469703 3.25,0.534619 0.275,0.06491 1.30802,-0.494775 2.2956,-1.243756 z m 13.12525,-2.281716 c 1.19236,-1.627668 1.38199,-2.312368 0.5,-1.805396 -2.35589,1.354176 -4.92085,3.770719 -4.92085,4.636106 0,1.435311 2.44048,-0.127349 4.42085,-2.83071 z M 78.959515,70.27824 c -0.904702,-4.822476 -3.236932,-9.284555 -4.852831,-9.284555 -0.701751,0 -3.502695,-2.053681 -6.22432,-4.563736 -2.721625,-2.510054 -5.848409,-5.388009 -6.948409,-6.395454 -1.1,-1.007445 -3.358007,-3.407288 -5.017793,-5.332984 -3.287977,-3.814735 -10.482207,-8.533147 -10.482207,-6.874866 0,0.566781 2.702714,3.648731 6.006032,6.848776 3.303318,3.200045 6.700098,6.493264 7.548401,7.318264 1.593919,1.550133 10.786515,12.309784 15.794059,18.486459 3.719241,4.587588 5.063394,4.522617 4.177068,-0.201904 z M 196.93395,68.993685 c 0.33992,-0.55 0.14148,-1 -0.44098,-1 -0.58246,0 -1.05902,0.45 -1.05902,1 0,0.55 0.19844,1 0.44098,1 0.24254,0 0.7191,-0.45 1.05902,-1 z m -36.5,-5.465204 c 0,-0.805862 1.27497,-2.943362 2.83327,-4.75 1.5583,-1.806638 3.86487,-5.309796 5.12572,-7.784796 1.26084,-2.475 2.76257,-5.4 3.33716,-6.5 11.21722,-21.474369 13.64984,-26.5 12.82712,-26.5 -1.16859,0 -4.12327,2.812891 -4.12327,3.925406 0,0.430402 -1.125,1.996444 -2.5,3.480093 -1.375,1.48365 -2.5,3.094036 -2.5,3.578635 0,0.4846 -0.86932,1.157001 -1.93182,1.494225 -1.30335,0.413668 -1.91401,1.492892 -1.8771,3.317388 0.0598,2.953856 -7.5803,15.180017 -9.52382,15.240697 -0.64199,0.02004 -2.39749,1.658177 -3.9011,3.640296 -2.75445,3.631026 -2.89208,6.086432 -0.59264,10.57326 1.09003,2.126952 2.82648,2.301916 2.82648,0.284796 z m 19.82874,-1.632175 c 1.87607,-3.004066 1.03124,-3.170232 -1.69848,-0.334064 -1.51793,1.577124 -1.86078,2.431443 -0.97577,2.431443 0.75043,0 1.95384,-0.94382 2.67425,-2.097379 z M 94.753175,60.629244 c 1.47342,-2.248725 1.3567,-2.620693 -2.38499,-7.600411 -2.36615,-3.149054 -3.93423,-6.337125 -3.93423,-7.998717 0,-2.010646 -1.30996,-3.988057 -4.81195,-7.263765 -2.646576,-2.47556 -5.796576,-5.027972 -7.000002,-5.672026 -1.480075,-0.792112 -2.188048,-2.111219 -2.188048,-4.076807 0,-1.598189 -0.421921,-3.166561 -0.937603,-3.485269 -1.137301,-0.702891 -1.173521,7.327502 -0.04273,9.474294 0.438281,0.832072 2.412429,3.225845 4.386995,5.319495 1.974567,2.093651 3.823578,5.012864 4.108918,6.487142 0.89738,4.636585 3.61469,12.589067 5.10164,14.930505 1.88798,2.972912 5.71636,2.916028 7.702,-0.114441 z M 76.174711,56.897439 c -1.782416,-2.802935 -4.0233,-6.290435 -4.979743,-7.75 -0.956444,-1.459565 -2.035926,-3.265345 -2.398851,-4.012845 -0.362925,-0.7475 -1.775481,-2.5475 -3.139013,-4 l -2.47915,-2.640909 0.746281,2.5 c 0.410455,1.375 1.368055,3.210433 2.128001,4.078741 0.759945,0.868307 1.381719,2.365945 1.381719,3.328084 0,1.714209 9.782854,13.524135 11.240756,13.569915 0.407416,0.01279 -0.717584,-2.270051 -2.5,-5.072986 z M 112.7591,53.743685 c 0.70134,-2.911654 -0.6221,-9.434845 -2.68819,-13.25 -0.89355,-1.65 -1.63322,-3.9 -1.6437,-5 -0.03,-3.151446 -3.66154,-13.944874 -6.46214,-19.206531 l -2.551395,-4.793469 0.633525,6 c 0.34845,3.3 0.99088,6.451367 1.42763,7.003037 0.43675,0.551671 0.67744,2.576671 0.53487,4.5 -0.25534,3.44476 0.72202,7.936371 2.42052,11.123855 0.4768,0.894791 1.17235,3.369791 1.54566,5.5 0.64751,3.694883 4.24346,10.351831 5.59966,10.366275 0.35288,0.0038 0.88548,-1.005667 1.18356,-2.243167 z m 19.97305,-4.084711 c 0.2817,-0.73409 0.0177,-3.18727 -0.58666,-5.451509 -0.96483,-3.614748 -0.81099,-4.731361 1.26148,-9.156172 1.29817,-2.771654 2.36031,-6.289021 2.36031,-7.816369 0,-4.044829 -1.25734,-8.406237 -2.24707,-7.794548 -1.83768,1.135746 -4.95497,29.351269 -3.41311,30.893121 1.04048,1.040487 2.06828,0.776388 2.62505,-0.674523 z M 72.433955,20.993685 c 0,-0.55 -0.476558,-1 -1.059017,-1 -0.582459,0 -0.780902,0.45 -0.440983,1 0.339919,0.55 0.816476,1 1.059017,1 0.242541,0 0.440983,-0.45 0.440983,-1 z M 180.10062,243.32702 c -0.36667,-0.36666 -0.65299,-1.37916 -0.63626,-2.25 0.025,-1.3003 0.22011,-1.2571 1.09166,0.24167 1.07678,1.85169 0.76461,3.22835 -0.4554,2.00833 z M 61.433955,218.99369 c 0,-0.55 0.45,-1 1,-1 0.55,0 1,0.45 1,1 0,0.55 -0.45,1 -1,1 -0.55,0 -1,-0.45 -1,-1 z M 27.037867,122.16182 c -0.32004,-0.51783 0.11504,-1.51992 0.966845,-2.22685 1.696779,-1.4082 6.736002,-0.26332 6.860767,1.55872 0.08867,1.29496 -7.062941,1.9054 -7.827612,0.66813 z M 157.08417,35.243685 c 0.37858,-1.5125 1.21546,-4.775 1.85974,-7.25 l 1.17142,-4.5 0.70774,3.108731 c 0.46498,2.042446 0.13939,4.529174 -0.94927,7.25 -1.85729,4.641817 -3.85228,5.636776 -2.78963,1.391269 z"
     id="path3067"
     style="fill:#000000" />
</svg>
